<svg viewBox="110.98440677966101 156.59154 341.3611299435028 146.48886" version="1.1" xmlns="http://www.w3.org/2000/svg" id="Ebene_1" style="max-height: 500px" width="341.3611299435028" height="146.48886">
  
  <defs>
    <style>
      .st0 {
        fill: #e94e1b;
      }

      .st1 {
        fill: #676767;
      }

      .st2 {
        fill: #60b22f;
      }
    </style>
  </defs>
  <polygon points="153.84 237.16 181.83 291.88 226.86 291.88 201.3 249.07 153.84 237.16" class="st0"/>
  <path d="M420.55,252.16l-34.18-50.18-26.21,66.49c-42.18-20.05-79.75,0-79.75,0l-67.65-93.55-36.88,51.34,37.04-56.77,95.91,52.14v-9.79l4.77-7.68v31.88l3.91-6.19.02-14.28,68.79-20.61,34.23,57.21Z" class="st0"/>
  <g>
    <polygon points="127.86 286.44 152.37 237.04 169.94 271.1 152.44 242 129.8 286.81 130.16 291.88 125.04 291.88 127.86 286.44" class="st1"/>
    <polygon points="172.56 234.44 212.44 184.84 253.07 234.44 212.81 178.49 172.56 234.44" class="st1"/>
    <polygon points="363.97 263.37 386.75 207.05 434.23 274.21 426.25 274.21 427.01 269.82 387.13 212.51 363.97 263.37" class="st1"/>
    <g>
      <path d="M388.94,243.88v-13.46c-4.09.38-6.99,4.03-6.99,8.49v4.96h6.99Z" class="st1"/>
      <path d="M390.3,243.88h6.99v-4.96c0-4.46-3.58-8.11-6.99-8.49v13.46Z" class="st1"/>
      <rect height="14.66" width="6.99" y="246.29" x="390.3" class="st1"/>
      <rect height="14.66" width="6.99" y="246.29" x="381.95" class="st1"/>
    </g>
    <g>
      <path d="M211.02,220.19v-17.72c-4.6.45-8.86,4.84-8.86,10.18v7.54h8.86Z" class="st1"/>
      <path d="M212.55,220.19h8.86v-7.54c0-5.34-4.26-9.73-8.86-10.18v17.72Z" class="st1"/>
      <rect height="16.87" width="8.86" y="221.59" x="212.55" class="st1"/>
      <rect height="16.87" width="8.86" y="221.59" x="202.16" class="st1"/>
    </g>
    <g>
      <path d="M152.22,267.18v-9.69c-2.73.25-5.45,2.65-5.45,5.58v4.11h5.45Z" class="st1"/>
      <path d="M153.25,267.18h5.45v-4.11c0-2.93-2.73-5.33-5.45-5.58v9.69Z" class="st1"/>
      <rect height="9.24" width="5.45" y="267.98" x="153.25" class="st1"/>
      <rect height="9.24" width="5.45" y="267.98" x="146.77" class="st1"/>
    </g>
  </g>
  <path d="M470.23,304.69s0,.03,0,.05h0s0-.03,0-.05Z" class="st2"/>
</svg>